<svg width="24" height="24" viewBox="0 0 24 24" fill="none" xmlns="http://www.w3.org/2000/svg">
<path d="M21.8855 18.464C21.9697 18.3022 22.0082 18.1206 21.9969 17.9386C21.9856 17.7566 21.925 17.5811 21.8215 17.431L12.8215 4.43099C12.7295 4.29816 12.6067 4.1896 12.4635 4.11462C12.3203 4.03965 12.1611 4.00048 11.9995 4.00048C11.8379 4.00048 11.6787 4.03965 11.5356 4.11462C11.3924 4.1896 11.2696 4.29816 11.1775 4.43099L2.17754 17.431C2.07299 17.5809 2.0116 17.7565 2.00004 17.9389C1.98849 18.1213 2.02722 18.3033 2.11202 18.4651C2.19682 18.627 2.32442 18.7625 2.48092 18.8568C2.63743 18.9511 2.81682 19.0006 2.99954 19L20.9995 19C21.1821 19 21.3611 18.9501 21.5173 18.8556C21.6735 18.7611 21.8008 18.6257 21.8855 18.464ZM4.90854 17L11.9995 6.75699L19.0905 17L4.90854 17Z" fill="black"/>
</svg>
