<svg width="38" height="38" viewBox="0 0 38 38" fill="none" xmlns="http://www.w3.org/2000/svg">
<path d="M15.5971 17.4525C15.9199 17.2187 16.0758 16.8328 16.0758 16.3021C16.0869 16.0498 16.035 15.8012 15.9236 15.5748C15.8234 15.393 15.675 15.2408 15.4932 15.1332C15.3046 15.0189 15.0952 14.9432 14.8771 14.9105C14.6396 14.866 14.3984 14.8438 14.1609 14.8475H11.5521V17.8051H14.3762C14.8623 17.8088 15.2742 17.69 15.5971 17.4525V17.4525ZM16.035 20.1244C15.6713 19.8461 15.1852 19.7088 14.5803 19.7088H11.5447V23.1971H14.5209C14.7992 23.1971 15.0553 23.1711 15.3039 23.1191C15.5391 23.0731 15.7634 22.9824 15.9645 22.852C16.1537 22.7295 16.3059 22.5625 16.4209 22.3473C16.5322 22.132 16.5879 21.8574 16.5879 21.5271C16.5879 20.8703 16.4023 20.4064 16.035 20.1244V20.1244ZM19 2.375C9.81914 2.375 2.375 9.81914 2.375 19C2.375 28.1809 9.81914 35.625 19 35.625C28.1809 35.625 35.625 28.1809 35.625 19C35.625 9.81914 28.1809 2.375 19 2.375ZM22.21 13.0217H27.3459V14.2723H22.21V13.0217ZM19 23.3344C18.7598 23.7904 18.4167 24.1842 17.998 24.4848C17.5602 24.7891 17.074 25.0117 16.5582 25.1416C16.0185 25.2862 15.4618 25.3574 14.9031 25.3531H8.75781V12.6951H14.7324C15.3373 12.6951 15.8865 12.7508 16.3875 12.8547C16.8848 12.9586 17.3078 13.1367 17.6641 13.3779C18.0166 13.6191 18.2949 13.942 18.4916 14.3428C18.6846 14.7398 18.7848 15.2371 18.7848 15.8271C18.7848 16.4654 18.64 16.9924 18.3506 17.4191C18.0574 17.8459 17.6344 18.191 17.0592 18.4619C17.8422 18.6846 18.4174 19.0816 18.7959 19.6383C19.1818 20.2023 19.3711 20.8777 19.3711 21.6719C19.3711 22.3176 19.2486 22.8705 19 23.3344ZM29.3461 21.375H22.7258C22.7258 22.0949 22.9744 22.7852 23.3492 23.1562C23.7277 23.5236 24.2695 23.7092 24.9783 23.7092C25.4904 23.7092 25.9246 23.5793 26.2957 23.3232C26.6631 23.0672 26.8857 22.7963 26.9674 22.5143H29.1865C28.8303 23.6164 28.2885 24.4031 27.5537 24.8781C26.8264 25.3531 25.9357 25.5906 24.9004 25.5906C24.1768 25.5906 23.5273 25.4719 22.9447 25.2455C22.3844 25.0266 21.8797 24.6926 21.4641 24.2621C21.0543 23.82 20.7375 23.3001 20.5326 22.7332C20.3062 22.1061 20.1949 21.4455 20.2023 20.7812C20.2023 20.0947 20.3174 19.4564 20.54 18.8627C20.9668 17.7086 21.8537 16.7846 22.9855 16.3059C23.5904 16.0535 24.2398 15.9273 24.8967 15.9348C25.676 15.9348 26.3514 16.0832 26.9377 16.3875C27.5022 16.6781 27.9922 17.0945 28.3701 17.6047C28.7449 18.1131 29.0084 18.692 29.1754 19.3451C29.335 19.9871 29.3906 20.6625 29.3461 21.375V21.375ZM24.8187 17.8273C24.418 17.8273 24.0803 17.8979 23.8205 18.0352C23.5607 18.1725 23.3455 18.3432 23.1822 18.5398C23.0267 18.7297 22.9118 18.9495 22.8445 19.1855C22.7852 19.3822 22.7443 19.5826 22.7295 19.7867H26.8301C26.7707 19.1447 26.548 18.6697 26.2512 18.3357C25.9395 18.0055 25.4385 17.8273 24.8187 17.8273V17.8273Z" fill="black"/>
</svg>
