<svg width="31" height="31" viewBox="0 0 31 31" fill="none" xmlns="http://www.w3.org/2000/svg">
<path fill-rule="evenodd" clip-rule="evenodd" d="M9.64164 1.37692C11.1568 1.30717 11.6398 1.29167 15.4993 1.29167C19.3588 1.29167 19.8419 1.30846 21.3558 1.37692C22.8696 1.44538 23.9029 1.68692 24.8071 2.03696C25.7539 2.39476 26.6128 2.95405 27.3233 3.67738C28.0466 4.3865 28.6046 5.24417 28.9611 6.19226C29.3124 7.09642 29.5527 8.12976 29.6224 9.64101C29.6922 11.1587 29.7077 11.6418 29.7077 15.5C29.7077 19.3595 29.6909 19.8426 29.6224 21.3577C29.554 22.869 29.3124 23.9023 28.9611 24.8065C28.6046 25.7547 28.0457 26.6138 27.3233 27.3239C26.6128 28.0473 25.7539 28.6053 24.8071 28.9618C23.9029 29.3131 22.8696 29.5533 21.3583 29.6231C19.8419 29.6928 19.3588 29.7083 15.4993 29.7083C11.6398 29.7083 11.1568 29.6915 9.64164 29.6231C8.13039 29.5546 7.09706 29.3131 6.19289 28.9618C5.2447 28.6052 4.38562 28.0463 3.67543 27.3239C2.95259 26.6144 2.39321 25.7557 2.03631 24.8078C1.68627 23.9036 1.44602 22.8703 1.37627 21.359C1.30652 19.8413 1.29102 19.3582 1.29102 15.5C1.29102 11.6405 1.30781 11.1574 1.37627 9.64359C1.44472 8.12975 1.68627 7.09642 2.03631 6.19226C2.39374 5.24428 2.95354 4.38562 3.67672 3.67609C4.3859 2.9534 5.24413 2.39404 6.1916 2.03696C7.09577 1.68692 8.1291 1.44667 9.64035 1.37692H9.64164ZM21.2408 3.93442C19.7425 3.86596 19.293 3.85176 15.4993 3.85176C11.7057 3.85176 11.2562 3.86596 9.75789 3.93442C8.37193 3.99771 7.62018 4.22892 7.11902 4.42396C6.45639 4.6823 5.98235 4.98842 5.48506 5.48571C5.01366 5.94432 4.65087 6.50262 4.42331 7.11967C4.22827 7.62084 3.99706 8.37259 3.93377 9.75855C3.86531 11.2569 3.8511 11.7064 3.8511 15.5C3.8511 19.2936 3.86531 19.7431 3.93377 21.2415C3.99706 22.6274 4.22827 23.3792 4.42331 23.8803C4.65064 24.4965 5.0136 25.0558 5.48506 25.5143C5.9436 25.9858 6.50289 26.3487 7.11902 26.576C7.62018 26.7711 8.37193 27.0023 9.75789 27.0656C11.2562 27.134 11.7044 27.1483 15.4993 27.1483C19.2943 27.1483 19.7425 27.134 21.2408 27.0656C22.6268 27.0023 23.3785 26.7711 23.8797 26.576C24.5423 26.3177 25.0163 26.0116 25.5136 25.5143C25.9851 25.0558 26.3481 24.4965 26.5754 23.8803C26.7704 23.3792 27.0016 22.6274 27.0649 21.2415C27.1334 19.7431 27.1476 19.2936 27.1476 15.5C27.1476 11.7064 27.1334 11.2569 27.0649 9.75855C27.0016 8.37259 26.7704 7.62084 26.5754 7.11967C26.3171 6.45705 26.0109 5.98301 25.5136 5.48571C25.055 5.01435 24.4967 4.65157 23.8797 4.42396C23.3785 4.22892 22.6268 3.99771 21.2408 3.93442V3.93442ZM13.6846 19.88C14.6981 20.3019 15.8266 20.3589 16.8775 20.0411C17.9283 19.7234 18.8362 19.0507 19.4462 18.1379C20.0561 17.2251 20.3303 16.1289 20.2217 15.0364C20.1132 13.944 19.6288 12.9231 18.8512 12.1481C18.3555 11.6527 17.7562 11.2734 17.0963 11.0375C16.4364 10.8015 15.7324 10.7148 15.035 10.7836C14.3376 10.8524 13.6641 11.075 13.063 11.4353C12.4619 11.7956 11.9482 12.2847 11.5589 12.8674C11.1695 13.4501 10.9142 14.1118 10.8113 14.805C10.7084 15.4982 10.7604 16.2056 10.9637 16.8763C11.167 17.547 11.5165 18.1642 11.9869 18.6836C12.4574 19.203 13.0372 19.6116 13.6846 19.88ZM10.3353 10.3359C11.0134 9.65776 11.8185 9.11982 12.7046 8.75281C13.5906 8.38579 14.5403 8.19689 15.4993 8.19689C16.4584 8.19689 17.4081 8.38579 18.2941 8.7528C19.1802 9.11982 19.9853 9.65776 20.6634 10.3359C21.3416 11.0141 21.8795 11.8192 22.2465 12.7052C22.6136 13.5913 22.8025 14.5409 22.8025 15.5C22.8025 16.4591 22.6136 17.4087 22.2465 18.2948C21.8795 19.1808 21.3416 19.9859 20.6634 20.6641C19.2938 22.0337 17.4363 22.8031 15.4993 22.8031C13.5624 22.8031 11.7049 22.0337 10.3353 20.6641C8.96567 19.2945 8.19623 17.4369 8.19623 15.5C8.19623 13.5631 8.96567 11.7055 10.3353 10.3359V10.3359ZM24.4222 9.28451C24.5902 9.12598 24.7248 8.93534 24.8178 8.72389C24.9109 8.51243 24.9606 8.28446 24.9639 8.05346C24.9673 7.82246 24.9243 7.59313 24.8374 7.37905C24.7506 7.16497 24.6217 6.9705 24.4583 6.80714C24.2949 6.64378 24.1005 6.51486 23.8864 6.42801C23.6723 6.34116 23.443 6.29814 23.212 6.30151C22.981 6.30488 22.753 6.35456 22.5415 6.44761C22.3301 6.54067 22.1395 6.6752 21.9809 6.84325C21.6726 7.17008 21.5038 7.6042 21.5104 8.05346C21.5169 8.50271 21.6983 8.93172 22.016 9.24943C22.3337 9.56713 22.7627 9.74851 23.212 9.75506C23.6612 9.76161 24.0954 9.59281 24.4222 9.28451V9.28451Z" fill="black"/>
</svg>
