<svg width="85" height="88" viewBox="0 0 85 88" fill="none" xmlns="http://www.w3.org/2000/svg">
<g clip-path="url(#clip0_406_1658)">
<path d="M84.9522 19.8732C84.9837 19.9902 85 20.1109 85 20.2322V39.0882C85 39.5809 84.7377 40.0359 84.3117 40.2809L68.5479 49.3932V67.4532C68.5479 67.6949 68.4847 67.9323 68.3645 68.1417C68.2444 68.3511 68.0715 68.5251 67.8632 68.6462L34.9562 87.6639C34.8809 87.7066 34.7989 87.7339 34.7165 87.7636C34.6856 87.7736 34.6568 87.7926 34.6242 87.8012C34.3942 87.8621 34.1524 87.8621 33.9223 87.8012C33.8845 87.7912 33.8503 87.7702 33.8144 87.7566C33.739 87.7289 33.6603 87.7049 33.5886 87.6639L0.688301 68.6459C0.479235 68.5254 0.305516 68.3517 0.184669 68.1423C0.0638232 67.9329 0.000124632 67.6953 0 67.4532L0 10.8852C0 10.7612 0.0172656 10.6409 0.0478125 10.5242C0.0581055 10.4846 0.0820117 10.4486 0.095957 10.4089C0.121523 10.3369 0.145762 10.2629 0.183281 10.1959C0.208848 10.1512 0.246367 10.1152 0.277246 10.0739C0.316758 10.0189 0.352617 9.96225 0.39877 9.91391C0.438281 9.87458 0.489746 9.84525 0.534238 9.81091C0.584043 9.76958 0.628203 9.72491 0.684648 9.69225H0.686309L17.1371 0.183579C17.3454 0.0632228 17.5816 -0.00012207 17.8219 -0.00012207C18.0623 -0.00012207 18.2984 0.0632228 18.5068 0.183579L34.9576 9.69225H34.9609C35.0157 9.72691 35.0622 9.76958 35.1116 9.80925C35.1561 9.84358 35.2059 9.87458 35.2451 9.91258C35.2933 9.96225 35.3275 10.0192 35.3683 10.0739C35.3975 10.1152 35.437 10.1512 35.4609 10.1959C35.5001 10.2646 35.5224 10.3369 35.5499 10.4092C35.5635 10.4486 35.5874 10.4846 35.5977 10.5259C35.6293 10.6429 35.6455 10.7639 35.6459 10.8852V46.2166L49.3541 38.2922V20.2306C49.3541 20.1106 49.3714 19.9882 49.4023 19.8732C49.4142 19.8319 49.4365 19.7959 49.4501 19.7566C49.4776 19.6842 49.5015 19.6099 49.5391 19.5432C49.5646 19.4986 49.6021 19.4626 49.6317 19.4212C49.6725 19.3662 49.7067 19.3096 49.7546 19.2612C49.7944 19.2219 49.8439 19.1926 49.8884 19.1582C49.9398 19.1169 49.9843 19.0722 50.0391 19.0396H50.0408L66.4932 9.53091C66.7015 9.41039 66.9377 9.34695 67.1781 9.34695C67.4184 9.34695 67.6546 9.41039 67.8629 9.53091L84.3137 19.0396C84.3718 19.0739 84.4163 19.1169 84.4678 19.1562C84.5103 19.1909 84.5601 19.2219 84.5996 19.2596C84.6474 19.3096 84.6816 19.3662 84.7224 19.4212C84.7536 19.4626 84.7912 19.4986 84.8154 19.5432C84.8546 19.6099 84.8768 19.6842 84.904 19.7566C84.9196 19.7959 84.9419 19.8319 84.9522 19.8732V19.8732ZM82.2578 38.2926V22.6126L76.5007 25.9396L68.5475 30.5369V46.2169L82.2594 38.2926H82.2578V38.2926ZM65.8069 66.6576V50.9666L57.9836 55.4522L35.6442 68.2523V84.0902L65.8069 66.6569V66.6576ZM2.74225 13.2652V66.6576L32.9016 84.0889V68.2539L17.1461 59.3019L17.1411 59.2986L17.1345 59.2952C17.0813 59.2642 17.0365 59.2196 16.9871 59.1819C16.9439 59.1473 16.8944 59.1199 16.8569 59.0819L16.8536 59.0769C16.8091 59.0339 16.7782 58.9806 16.7407 58.9326C16.7062 58.8859 16.6653 58.8466 16.6378 58.7986L16.6361 58.7933C16.6052 58.7419 16.5863 58.6799 16.564 58.6216C16.5418 58.5699 16.5129 58.5216 16.499 58.4669V58.4652C16.482 58.3999 16.4787 58.3309 16.4717 58.2639C16.4651 58.2126 16.4512 58.1609 16.4512 58.1092V21.1899L8.49934 16.5906L2.74225 13.2672V13.2652ZM17.8238 2.96425L4.11686 10.8852L17.8204 18.8059L31.5254 10.8832L17.8204 2.96425H17.8238ZM24.9518 52.3969L32.9033 47.8016V13.2652L27.1469 16.5926L19.1931 21.1896V55.7256L24.9518 52.3969V52.3969ZM67.1779 12.3116L53.473 20.2322L67.1779 28.1532L80.8812 20.2306L67.1782 12.3116H67.1779ZM65.8066 30.5369L57.8535 25.9396L52.0967 22.6126V38.2926L60.0482 42.8882L65.8069 46.2169V30.5369H65.8066ZM34.2713 65.8723L54.3734 54.3509L64.422 48.5936L50.7271 40.6779L34.9592 49.7912L20.5883 58.0973L34.2713 65.8723Z" fill="#FF2D20"/>
</g>
<defs>
<clipPath id="clip0_406_1658">
<rect width="85" height="88" fill="white"/>
</clipPath>
</defs>
</svg>
