<svg width="31" height="31" viewBox="0 0 31 31" fill="none" xmlns="http://www.w3.org/2000/svg">
<path fill-rule="evenodd" clip-rule="evenodd" d="M1.29102 3.66574C1.29102 3.0361 1.54114 2.43224 1.98637 1.98701C2.4316 1.54179 3.03545 1.29166 3.6651 1.29166H27.331C27.6431 1.29115 27.9521 1.35219 28.2405 1.47129C28.5289 1.59038 28.791 1.7652 29.0118 1.98572C29.2326 2.20624 29.4077 2.46814 29.5271 2.75642C29.6465 3.0447 29.7079 3.35371 29.7077 3.66574V27.3317C29.708 27.6438 29.6468 27.9529 29.5276 28.2413C29.4083 28.5297 29.2334 28.7918 29.0128 29.0125C28.7922 29.2333 28.5302 29.4083 28.2418 29.5277C27.9535 29.6471 27.6444 29.7085 27.3323 29.7083H3.6651C3.35322 29.7083 3.0444 29.6469 2.75628 29.5275C2.46816 29.4081 2.20638 29.2331 1.98591 29.0125C1.76544 28.7919 1.59059 28.5301 1.47136 28.2419C1.35213 27.9537 1.29085 27.6448 1.29102 27.3329V3.66574ZM12.5388 12.1262H16.3867V14.0585C16.9421 12.9477 18.363 11.9479 20.4981 11.9479C24.5914 11.9479 25.5614 14.1605 25.5614 18.2202V25.7403H21.4191V19.1451C21.4191 16.833 20.8636 15.5284 19.4531 15.5284C17.4963 15.5284 16.6825 16.935 16.6825 19.1451V25.7403H12.5388V12.1262ZM5.43468 25.5634H9.57835V11.9479H5.43468V25.5621V25.5634ZM10.1712 7.50716C10.179 7.86194 10.1159 8.21472 9.98553 8.54477C9.85516 8.87483 9.66018 9.17552 9.41202 9.4292C9.16387 9.68288 8.86754 9.88444 8.54044 10.022C8.21333 10.1596 7.86203 10.2305 7.50716 10.2305C7.15229 10.2305 6.80099 10.1596 6.47389 10.022C6.14678 9.88444 5.85046 9.68288 5.6023 9.4292C5.35415 9.17552 5.15916 8.87483 5.02879 8.54477C4.89842 8.21472 4.83529 7.86194 4.8431 7.50716C4.85843 6.81076 5.14585 6.14806 5.64378 5.66096C6.14172 5.17387 6.8106 4.90112 7.50716 4.90112C8.20373 4.90112 8.8726 5.17387 9.37054 5.66096C9.86848 6.14806 10.1559 6.81076 10.1712 7.50716V7.50716Z" fill="black"/>
</svg>
