<svg width="97" height="87" viewBox="0 0 97 87" fill="none" xmlns="http://www.w3.org/2000/svg">
<path d="M79.7533 28.1697C78.721 27.8131 77.68 27.4826 76.6311 27.1788C76.8073 26.4538 76.9695 25.7376 77.1135 25.0339C79.4771 13.4793 77.9319 4.17071 72.6541 1.10587C67.5938 -1.83229 59.3182 1.23141 50.9602 8.55658C50.1365 9.2798 49.3311 10.0239 48.5447 10.7881C48.0183 10.2799 47.4825 9.78159 46.9378 9.29341C38.1782 1.46112 29.3982 -1.83992 24.1261 1.2337C19.0704 4.18102 17.5733 12.9318 19.7012 23.8823C19.9129 24.9669 20.152 26.0458 20.4181 27.1181C19.1753 27.4737 17.9761 27.8523 16.8284 28.2552C6.55849 31.8611 0 37.5119 0 43.3734C0 49.4271 7.04084 55.4992 17.7374 59.181C18.6045 59.4783 19.479 59.7538 20.3598 60.0072C20.0737 61.1621 19.8197 62.3248 19.5982 63.494C17.5695 74.2546 19.1537 82.7985 24.1958 85.7271C29.4035 88.7515 38.1441 85.6432 46.6547 78.1509C47.3448 77.5417 48.0198 76.9154 48.6788 76.2723C49.5305 77.0998 50.4048 77.9032 51.3009 78.6816C59.5451 85.8256 67.6871 88.7103 72.7242 85.7737C77.927 82.7405 79.6181 73.562 77.4227 62.3951C77.2497 61.5202 77.0558 60.6497 76.841 59.7843C77.4549 59.6012 78.0573 59.4127 78.6446 59.2165C89.7648 55.5064 97 49.508 97 43.3734C97 37.4906 90.2297 31.8016 79.7533 28.1697V28.1697ZM77.3416 55.2557C76.8111 55.4324 76.267 55.603 75.7123 55.769C74.4846 51.8551 72.8281 47.6936 70.8005 43.3936C72.7352 39.1962 74.3281 35.0878 75.5213 31.1995C76.5137 31.4887 77.4765 31.7936 78.4048 32.1153C87.3811 35.2274 92.8563 39.8281 92.8563 43.3734C92.8563 47.1495 86.9431 52.0516 77.3416 55.2557V55.2557ZM73.3578 63.2056C74.3285 68.1432 74.4668 72.6077 73.8238 76.098C73.2464 79.2342 72.0846 81.3248 70.6478 82.1624C67.5912 83.9444 61.0539 81.6282 54.0036 75.5183C53.1702 74.7946 52.3568 74.0477 51.5646 73.2785C54.298 70.2682 57.0296 66.7687 59.6955 62.882C64.3849 62.463 68.8151 61.7777 72.8326 60.8424C73.0304 61.6464 73.2062 62.4348 73.3578 63.2056V63.2056ZM33.0694 81.8545C30.0829 82.9164 27.7041 82.9469 26.2662 82.112C23.2065 80.335 21.9345 73.4746 23.6695 64.2725C23.8758 63.1851 24.1119 62.1036 24.3777 61.0294C28.3509 61.9147 32.7489 62.5512 37.4492 62.935C40.1334 66.7382 42.9437 70.2339 45.776 73.2949C45.1741 73.8814 44.558 74.4529 43.9281 75.0089C40.1644 78.3218 36.3932 80.6723 33.0694 81.8545V81.8545ZM19.0779 55.2325C14.348 53.6043 10.4419 51.4884 7.76455 49.1795C5.35849 47.1048 4.1441 45.0447 4.1441 43.3734C4.1441 39.8163 9.40976 35.2793 18.1924 32.1958C19.2583 31.8218 20.3738 31.4689 21.5313 31.1377C22.7454 35.1137 24.3375 39.271 26.259 43.4749C24.3125 47.7409 22.6976 51.9646 21.4719 55.9876C20.6679 55.7557 19.8696 55.5039 19.0779 55.2325V55.2325ZM23.768 23.0806C21.9451 13.6987 23.1557 6.6216 26.2025 4.84534C29.4475 2.95348 36.6232 5.65086 44.1865 12.414C44.6797 12.856 45.1649 13.307 45.6419 13.7667C42.8236 16.8143 40.039 20.284 37.3787 24.0647C32.8167 24.4906 28.4498 25.1743 24.4349 26.0905C24.1875 25.0931 23.9652 24.0897 23.768 23.081V23.0806ZM65.6095 33.4855C64.6612 31.8359 63.6777 30.2071 62.6597 28.6002C65.7546 28.9943 68.72 29.5175 71.5045 30.157C70.6687 32.8555 69.6267 35.6765 68.4002 38.5689C67.5036 36.8559 66.5732 35.1611 65.6095 33.4855V33.4855ZM48.5466 16.7491C50.4578 18.8344 52.372 21.1624 54.2548 23.6885C50.4355 23.5068 46.6097 23.5061 42.7903 23.6862C44.6749 21.1834 46.6055 18.8585 48.5466 16.7491ZM31.3742 33.5141C30.4225 35.1762 29.5095 36.8605 28.6358 38.5655C27.4294 35.6834 26.3969 32.8494 25.5538 30.1127C28.3213 29.4892 31.2726 28.9794 34.3479 28.5925C33.3185 30.2093 32.327 31.8501 31.3742 33.5138V33.5141ZM34.4361 58.4511C31.259 58.0939 28.2634 57.6105 25.4966 57.0038C26.3529 54.2182 27.4082 51.324 28.6408 48.3801C29.5179 50.0863 30.4347 51.7716 31.3905 53.4345C32.3734 55.1439 33.3911 56.8183 34.4361 58.4511ZM48.661 70.2915C46.6968 68.1577 44.7378 65.7969 42.8247 63.2578C44.6821 63.3311 46.5755 63.3685 48.5 63.3685C50.4771 63.3685 52.4315 63.3238 54.3552 63.2376C52.4664 65.8224 50.5594 68.1867 48.661 70.2915ZM68.4392 48.2297C69.7358 51.206 70.8286 54.0851 71.6963 56.8229C68.884 57.4693 65.8475 57.9898 62.648 58.3763C63.6732 56.7395 64.666 55.0824 65.6258 53.4059C66.6016 51.7017 67.5396 49.9759 68.4392 48.2297V48.2297ZM62.0364 51.3209C60.5671 53.8914 59.0152 56.413 57.3831 58.8819C54.4267 59.0927 51.4638 59.1975 48.5 59.1959C45.4813 59.1959 42.5451 59.1013 39.7177 58.9166C38.043 56.4534 36.4615 53.9274 34.9765 51.3438H34.9768C33.4988 48.7739 32.1182 46.1484 30.838 43.473C32.1149 40.7969 33.4913 38.1702 34.9643 35.5983L34.964 35.5987C36.4364 33.0262 38.0053 30.5109 39.6673 28.0583C42.5519 27.8385 45.5101 27.7241 48.4996 27.7241H48.5C51.5032 27.7241 54.4651 27.8397 57.349 28.061C58.9942 30.5099 60.5531 33.0165 62.0228 35.5762C63.5007 38.1424 64.8953 40.7563 66.2044 43.4138C64.9087 46.0985 63.5185 48.7359 62.0364 51.3209V51.3209ZM70.5846 4.72095C73.8325 6.60748 75.0958 14.215 73.055 24.1914C72.9247 24.8279 72.7784 25.4762 72.6193 26.1336C68.5945 25.198 64.2246 24.5024 59.6493 24.0701C56.9841 20.2478 54.2222 16.7727 51.4498 13.7644C52.1764 13.059 52.9203 12.372 53.6808 11.7038C60.8421 5.42802 67.5351 2.95004 70.5846 4.72095V4.72095ZM48.5 34.6505C53.2837 34.6505 57.1618 38.5559 57.1618 43.3734C57.1618 48.1908 53.2837 52.0963 48.5 52.0963C43.7163 52.0963 39.8382 48.1908 39.8382 43.3734C39.8382 38.5559 43.7163 34.6505 48.5 34.6505V34.6505Z" fill="#00D8FF"/>
</svg>
