<svg width="35" height="35" viewBox="0 0 35 35" fill="none" xmlns="http://www.w3.org/2000/svg">
<path d="M34.4801 7.19979C33.2624 7.73937 31.9543 8.10396 30.5791 8.26875C31.998 7.4197 33.0596 6.08339 33.5657 4.50917C32.2326 5.30103 30.7735 5.85841 29.252 6.15708C28.2288 5.0646 26.8735 4.34048 25.3966 4.09715C23.9197 3.85382 22.4038 4.1049 21.0842 4.81141C19.7646 5.51792 18.7152 6.64032 18.0989 8.00436C17.4825 9.3684 17.3338 10.8978 17.6757 12.355C14.9744 12.2194 12.3319 11.5173 9.91947 10.2942C7.50709 9.07121 5.37883 7.35461 3.67281 5.25583C3.08948 6.26208 2.75406 7.42875 2.75406 8.67125C2.75341 9.78978 3.02886 10.8912 3.55597 11.8777C4.08308 12.8643 4.84555 13.7055 5.77573 14.3267C4.69697 14.2923 3.642 14.0009 2.69865 13.4765V13.564C2.69854 15.1327 3.24119 16.6533 4.23454 17.8675C5.22788 19.0817 6.61073 19.9149 8.14844 20.2256C7.1477 20.4965 6.09851 20.5364 5.0801 20.3423C5.51395 21.6921 6.35906 22.8725 7.4971 23.7182C8.63514 24.5639 10.0091 25.0326 11.4268 25.0585C9.02028 26.9477 6.04827 27.9724 2.98885 27.9679C2.44691 27.9681 1.90542 27.9364 1.36719 27.8731C4.47267 29.8698 8.08768 30.9295 11.7797 30.9254C24.2776 30.9254 31.1099 20.5742 31.1099 11.5967C31.1099 11.305 31.1026 11.0104 31.0895 10.7187C32.4184 9.75767 33.5656 8.56756 34.4772 7.20417L34.4801 7.19979V7.19979Z" fill="black"/>
</svg>
