<svg width="86" height="86" viewBox="0 0 86 86" fill="none" xmlns="http://www.w3.org/2000/svg">
<path d="M77.9652 13.5181L62.469 6.05761C61.5939 5.63567 60.6092 5.49643 59.6514 5.65919C58.6936 5.82195 57.8102 6.27865 57.1236 6.96599L6.39703 53.2125C5.78157 53.7709 5.41315 54.551 5.37283 55.3811C5.33251 56.2112 5.62359 57.0233 6.18203 57.6388C6.24922 57.7114 6.3164 57.7812 6.38897 57.8457L10.5304 61.6082C11.0716 62.1008 11.7682 62.3882 12.4992 62.4206C13.2302 62.453 13.9495 62.2283 14.5321 61.7856L75.6324 15.4531C76.0939 15.1029 76.644 14.8885 77.2208 14.834C77.7975 14.7794 78.3781 14.887 78.897 15.1445C79.416 15.402 79.8528 15.7993 80.1582 16.2916C80.4636 16.7839 80.6255 17.3516 80.6258 17.931V17.7509C80.6257 16.8665 80.376 16 79.9053 15.2512C79.4346 14.5024 78.7621 13.9016 77.9652 13.5181V13.5181Z" fill="#0065A9"/>
<path d="M77.9652 72.4819L62.469 79.9451C61.5937 80.3658 60.6092 80.5044 59.6517 80.3417C58.6942 80.179 57.8108 79.723 57.1236 79.0367L6.39703 32.7875C5.78157 32.2291 5.41315 31.449 5.37283 30.6189C5.33251 29.7888 5.62359 28.9767 6.18203 28.3612C6.24922 28.2886 6.3164 28.2188 6.38897 28.1543L10.5304 24.3918C11.0721 23.8972 11.7703 23.6085 12.5031 23.5761C13.2359 23.5436 13.9569 23.7696 14.5402 24.2144L75.6324 70.5469C76.0939 70.8971 76.644 71.1115 77.2208 71.1661C77.7975 71.2206 78.3781 71.113 78.897 70.8555C79.416 70.598 79.8528 70.2007 80.1582 69.7084C80.4636 69.2161 80.6255 68.6484 80.6258 68.069V68.2625C80.6229 69.1446 80.3718 70.0081 79.9013 70.7543C79.4308 71.5004 78.7599 72.0991 77.9652 72.4819V72.4819Z" fill="#007ACC"/>
<path d="M62.4675 79.945C61.5921 80.3658 60.6077 80.5043 59.6502 80.3416C58.6927 80.1789 57.8093 79.7229 57.1221 79.0366C57.508 79.4175 57.9978 79.6761 58.53 79.7798C59.0623 79.8836 59.6133 79.8279 60.114 79.6199C60.6148 79.4118 61.043 79.0606 61.345 78.6103C61.647 78.1599 61.8094 77.6304 61.8118 77.0882V8.9117C61.8122 8.36691 61.651 7.83425 61.3484 7.38118C61.0459 6.92812 60.6157 6.57504 60.1123 6.36667C59.609 6.1583 59.0551 6.10402 58.5209 6.2107C57.9866 6.31739 57.4961 6.58023 57.1113 6.96595C57.7981 6.27886 58.6813 5.82213 59.6389 5.65892C60.5965 5.4957 61.5812 5.63407 62.4568 6.05488L77.9502 13.5046C78.7497 13.8863 79.425 14.4862 79.8981 15.2351C80.3713 15.9841 80.623 16.8516 80.6243 17.7374V68.2624C80.6245 69.1476 80.3746 70.0149 79.9034 70.7642C79.4322 71.5136 78.7588 72.1146 77.961 72.4979L62.4675 79.945Z" fill="#1F9CF0"/>
</svg>
